<svg width="56" height="55" viewBox="0 0 56 55" fill="none" xmlns="http://www.w3.org/2000/svg">
<path d="M12.9473 0.000104041C10.3946 -0.0101477 7.89633 0.737436 5.76887 2.14816C3.64142 3.55889 1.98052 5.56929 0.996544 7.92471C0.0125697 10.2801 -0.250204 12.8746 0.241507 15.3795C0.733217 17.8843 1.95729 20.1869 3.75868 21.9956C5.56006 23.8042 7.85771 25.0376 10.3606 25.5394C12.8635 26.0411 15.459 25.7888 17.8183 24.8143C20.1777 23.8398 22.1948 22.187 23.614 20.0653C25.0333 17.9435 25.7909 15.4483 25.791 12.8956C25.7774 9.4886 24.4216 6.22426 22.0173 3.8103C19.613 1.39634 16.3542 0.0273333 12.9473 0.000104041ZM12.9473 23.2534C10.8987 23.2534 8.89611 22.6459 7.19278 21.5078C5.48945 20.3697 4.16186 18.752 3.3779 16.8593C2.59394 14.9667 2.38882 12.8841 2.78848 10.8749C3.18814 8.86565 4.17463 7.02007 5.62319 5.5715C7.07176 4.12293 8.91734 3.13645 10.9266 2.73679C12.9358 2.33713 15.0184 2.54225 16.911 3.32621C18.8037 4.11017 20.4213 5.43775 21.5595 7.14109C22.6976 8.84442 23.3051 10.847 23.3051 12.8956C23.3051 15.6426 22.2138 18.2772 20.2714 20.2197C18.3289 22.1621 15.6943 23.2534 12.9473 23.2534Z" fill="#E4E4E4"/>
<path d="M13.0051 3.88194C11.2262 3.8734 9.48471 4.39311 8.0014 5.37523C6.51809 6.35735 5.3597 7.75767 4.67299 9.39877C3.98628 11.0399 3.80217 12.8479 4.14399 14.5937C4.4858 16.3395 5.33816 17.9446 6.59305 19.2056C7.84795 20.4665 9.44891 21.3266 11.1931 21.6768C12.9372 22.027 14.7461 21.8516 16.3905 21.1728C18.0349 20.494 19.4408 19.3424 20.43 17.8638C21.4193 16.3853 21.9474 14.6463 21.9474 12.8673C21.9451 10.4924 21.0037 8.21477 19.3284 6.53141C17.6531 4.84805 15.38 3.89561 13.0051 3.88194Z" fill="#E4E4E4"/>
<path d="M42.3376 29.209C39.786 29.2107 37.2923 29.9693 35.172 31.3889C33.0518 32.8084 31.4003 34.8251 30.4266 37.1836C29.453 39.5421 29.2008 42.1364 29.7022 44.6383C30.2035 47.1401 31.4358 49.437 33.2431 51.2382C35.0504 53.0394 37.3514 54.264 39.8549 54.757C42.3584 55.2499 44.9519 54.9891 47.3071 54.0076C49.6623 53.026 51.6734 51.3678 53.0858 49.2428C54.4983 47.1178 55.2486 44.6215 55.2417 42.0699C55.219 38.6585 53.8508 35.394 51.4345 32.9858C49.0182 30.5775 45.7491 29.2203 42.3376 29.209ZM42.3376 52.4709C40.289 52.4709 38.2865 51.8634 36.5831 50.7253C34.8798 49.5872 33.5522 47.9695 32.7682 46.0769C31.9843 44.1842 31.7792 42.1016 32.1788 40.0924C32.5785 38.0832 33.565 36.2376 35.0135 34.789C36.4621 33.3404 38.3077 32.354 40.3169 31.9543C42.3261 31.5546 44.4087 31.7598 46.3014 32.5437C48.194 33.3277 49.8117 34.6553 50.9498 36.3586C52.0879 38.0619 52.6954 40.0645 52.6954 42.1131C52.6863 44.8542 51.591 47.4799 49.6495 49.4149C47.708 51.3499 45.0787 52.4364 42.3376 52.4364V52.4709Z" fill="#E4E4E4"/>
<path d="M42.3376 33.0842C40.5604 33.0842 38.8232 33.6112 37.3456 34.5985C35.8679 35.5858 34.7162 36.9892 34.0362 38.631C33.3561 40.2729 33.1781 42.0796 33.5248 43.8226C33.8715 45.5656 34.7273 47.1666 35.9839 48.4232C37.2406 49.6799 38.8416 50.5357 40.5846 50.8824C42.3276 51.2291 44.1343 51.0511 45.7761 50.371C47.418 49.691 48.8213 48.5393 49.8087 47.0616C50.796 45.584 51.323 43.8468 51.323 42.0696C51.3207 39.6872 50.3733 37.4031 48.6887 35.7185C47.0041 34.0339 44.72 33.0865 42.3376 33.0842ZM40.1624 40.3778C40.3444 40.6963 40.6101 40.959 40.9306 41.1374C41.3324 41.3302 41.7712 41.4332 42.2167 41.4395C42.4757 41.4395 42.7174 41.4395 42.9763 41.5258C43.5637 41.5956 44.1246 41.8104 44.6083 42.1509C45.092 42.4915 45.4833 42.947 45.747 43.4765C45.9402 43.9262 46.0147 44.4179 45.9633 44.9045C45.9119 45.3912 45.7364 45.8565 45.4536 46.2559C44.8989 47.0201 44.081 47.552 43.1576 47.7491H43.0195V48.4915C43.0303 48.588 43.0207 48.6858 42.9911 48.7784C42.9616 48.871 42.9128 48.9563 42.8481 49.0287C42.7833 49.1012 42.704 49.1592 42.6153 49.1989C42.5265 49.2385 42.4305 49.2591 42.3333 49.2591C42.2361 49.2591 42.14 49.2385 42.0513 49.1989C41.9626 49.1592 41.8832 49.1012 41.8185 49.0287C41.7537 48.9563 41.7049 48.871 41.6754 48.7784C41.6459 48.6858 41.6362 48.588 41.6471 48.4915V47.7664H41.509C40.7217 47.6549 39.9991 47.2691 39.4685 46.677C38.9379 46.0848 38.6335 45.3243 38.6088 44.5296C38.6133 44.3495 38.688 44.1782 38.817 44.0524C38.946 43.9267 39.1191 43.8563 39.2993 43.8563C39.3896 43.8567 39.479 43.8752 39.562 43.9108C39.6451 43.9464 39.7201 43.9983 39.7827 44.0635C39.8447 44.1289 39.8927 44.2063 39.9239 44.2909C39.955 44.3754 39.9686 44.4655 39.9639 44.5555C39.9639 45.8157 41.345 46.4544 42.3031 46.4889H42.3894C42.7652 46.4839 43.1347 46.3917 43.4687 46.2194C43.8028 46.0471 44.0922 45.7996 44.3142 45.4963C44.468 45.2877 44.5641 45.0422 44.5929 44.7846C44.6217 44.527 44.5821 44.2664 44.4782 44.029C44.2878 43.7199 44.0295 43.4582 43.7229 43.2638C43.4163 43.0693 43.0695 42.9473 42.7087 42.9069C42.493 42.9069 42.2858 42.8551 42.0182 42.8378C41.3844 42.8144 40.7643 42.6461 40.2056 42.3458C39.6522 42.0298 39.2001 41.5627 38.9022 40.9993C38.6788 40.5272 38.5797 40.0058 38.6145 39.4846C38.6492 38.9634 38.8166 38.4597 39.1008 38.0214C39.3753 37.615 39.7282 37.2675 40.1387 36.9993C40.5493 36.731 41.0093 36.5474 41.4917 36.4591H41.6298V35.665C41.6298 35.4842 41.7016 35.3107 41.8295 35.1829C41.9574 35.055 42.1308 34.9831 42.3117 34.9831C42.402 34.982 42.4916 34.9988 42.5753 35.0325C42.659 35.0663 42.7352 35.1163 42.7994 35.1798C42.8637 35.2432 42.9147 35.3188 42.9495 35.4021C42.9843 35.4854 43.0022 35.5747 43.0022 35.665V36.5282H43.1403C43.8432 36.6599 44.4919 36.9952 45.006 37.4923C45.52 37.9895 45.8767 38.6267 46.0319 39.3248C46.0599 39.5051 46.0171 39.6893 45.9126 39.8389C45.8081 39.9884 45.6498 40.0918 45.4708 40.1275H45.35C45.188 40.1294 45.0308 40.0729 44.9071 39.9683C44.7834 39.8636 44.7016 39.7179 44.6767 39.5578C44.5538 39.0475 44.2616 38.5939 43.8478 38.271C43.4339 37.9481 42.9229 37.7749 42.398 37.7797H42.2944C41.901 37.7695 41.5113 37.8572 41.1602 38.035C40.8092 38.2128 40.5078 38.4751 40.2833 38.7983C40.1385 39.0328 40.052 39.2986 40.031 39.5734C40.01 39.8482 40.055 40.124 40.1624 40.3778ZM21.8636 44.7454H13.4652C13.1826 44.7465 12.9026 44.6917 12.6413 44.5841C12.3801 44.4765 12.1427 44.3182 11.9429 44.1184C11.7431 43.9186 11.5848 43.6812 11.4772 43.42C11.3696 43.1587 11.3148 42.8787 11.3159 42.5961V36.1139L12.0151 36.8648C12.1343 36.9957 12.2796 37.1002 12.4417 37.1715C12.6037 37.2429 12.7789 37.2795 12.9559 37.2791C13.2766 37.2757 13.5845 37.1525 13.8191 36.9339C13.9435 36.819 14.044 36.6807 14.1149 36.5269C14.1857 36.3731 14.2255 36.2068 14.2319 36.0376C14.2383 35.8684 14.2112 35.6995 14.1522 35.5408C14.0933 35.3821 14.0035 35.2366 13.8881 35.1126L10.9534 31.9707C10.8338 31.8433 10.6894 31.7416 10.5291 31.6719C10.3688 31.6021 10.196 31.5658 10.0212 31.5651C9.84457 31.5672 9.67019 31.605 9.50852 31.6762C9.34685 31.7474 9.20123 31.8505 9.08037 31.9794L6.14566 35.1385C6.01231 35.2586 5.90556 35.4053 5.83229 35.5691C5.75902 35.7329 5.72085 35.9103 5.72022 36.0897C5.7196 36.2692 5.75654 36.4468 5.82867 36.6111C5.9008 36.7754 6.00652 36.9228 6.13903 37.0439C6.27155 37.1649 6.42792 37.2568 6.5981 37.3138C6.76828 37.3707 6.9485 37.3915 7.12716 37.3746C7.30583 37.3577 7.47899 37.3037 7.6355 37.2159C7.79202 37.1281 7.92843 37.0085 8.03596 36.8648L8.73511 36.1139V42.5875C8.73398 43.2098 8.85542 43.8262 9.09252 44.4016C9.32961 44.9769 9.67771 45.5 10.1169 45.9408C10.5562 46.3816 11.0779 46.7316 11.6524 46.9708C12.2269 47.21 12.8429 47.3337 13.4652 47.3348H21.8636C22.207 47.3348 22.5363 47.1984 22.7791 46.9556C23.022 46.7128 23.1584 46.3835 23.1584 46.0401C23.1584 45.6967 23.022 45.3674 22.7791 45.1246C22.5363 44.8818 22.207 44.7454 21.8636 44.7454ZM33.3781 10.2193H41.7765C42.0591 10.2182 42.3391 10.273 42.6004 10.3806C42.8616 10.4882 43.099 10.6465 43.2988 10.8463C43.4986 11.0461 43.6569 11.2835 43.7645 11.5448C43.8721 11.806 43.9269 12.086 43.9258 12.3686V18.8508L43.2266 18.0999C43.0014 17.8502 42.6874 17.6987 42.3518 17.6777C42.0163 17.6567 41.6858 17.768 41.4313 17.9877C41.3068 18.1026 41.2063 18.2409 41.1355 18.3947C41.0646 18.5485 41.0249 18.7148 41.0185 18.884C41.012 19.0532 41.0391 19.222 41.0981 19.3807C41.1571 19.5395 41.2468 19.685 41.3622 19.8089L44.3228 22.9853C44.4134 23.0767 44.5184 23.1525 44.6336 23.2098L44.7112 23.063V23.2529C44.8236 23.3012 44.9432 23.3304 45.0651 23.3392H45.1946C45.3898 23.3376 45.582 23.2903 45.7557 23.2011C45.898 23.133 46.0267 23.0394 46.1354 22.9249L49.0702 19.7658C49.2421 19.5827 49.3567 19.3532 49.3997 19.1057C49.4428 18.8582 49.4124 18.6035 49.3123 18.3731C49.2123 18.1427 49.0469 17.9466 48.8367 17.8091C48.6264 17.6716 48.3805 17.5986 48.1293 17.5993C47.9523 17.5989 47.7771 17.6355 47.6151 17.7069C47.453 17.7782 47.3077 17.8827 47.1885 18.0136L46.4807 18.7645V12.2909C46.4627 11.0529 45.9599 9.8713 45.0804 8.99984C44.2008 8.12838 43.0147 7.63653 41.7765 7.62988H33.3781C33.0347 7.62988 32.7054 7.76629 32.4626 8.0091C32.2198 8.25191 32.0833 8.58123 32.0833 8.92461C32.0833 9.26799 32.2198 9.59731 32.4626 9.84012C32.7054 10.0829 33.0347 10.2193 33.3781 10.2193Z" fill="#E4E4E4"/>
<path d="M8.65942 17.0391C8.65942 14.4768 10.0212 12.825 12.7688 12.825C16.008 12.8251 16.8782 10.4766 16.8782 8.65918" stroke="#181818" stroke-width="2" stroke-linecap="round"/>
</svg>
