<svg width="50" height="32" viewBox="0 0 50 32" fill="none" xmlns="http://www.w3.org/2000/svg">
<path d="M3.04148 0.500005C2.70205 0.499351 2.36584 0.565733 2.05213 0.695344C1.73842 0.824955 1.45339 1.01525 1.21341 1.25529C0.973421 1.49533 0.783202 1.78039 0.653667 2.09413C0.524131 2.40787 0.457828 2.74411 0.458563 3.08354V28.9165C0.457828 29.2559 0.524131 29.5921 0.653667 29.9058C0.783202 30.2196 0.973421 30.5047 1.21341 30.7447C1.45339 30.9848 1.73842 31.175 2.05213 31.3046C2.36584 31.4342 2.70205 31.5007 3.04148 31.5H46.9586C47.298 31.5007 47.6342 31.4342 47.9479 31.3046C48.2616 31.175 48.5467 30.9848 48.7866 30.7447C49.0266 30.5047 49.2168 30.2196 49.3464 29.9058C49.4759 29.5921 49.5422 29.2559 49.5415 28.9165V3.08418C49.5422 2.74475 49.4759 2.40851 49.3464 2.09477C49.2168 1.78103 49.0266 1.49594 48.7866 1.25589C48.5467 1.01585 48.2616 0.825561 47.9479 0.69595C47.6342 0.566339 47.298 0.499956 46.9586 0.50061L3.04148 0.500005ZM1.75002 5.66647H48.25V10.8335H1.75002V5.66647ZM3.04148 21.1665H10.7915V26.3335H3.04148V21.1665ZM26.2915 23.75H44.375V26.3335H26.2915V23.75Z" fill="white"/>
</svg>
