<svg width="51" height="51" viewBox="0 0 51 51" fill="none" xmlns="http://www.w3.org/2000/svg">
<path d="M25.1179 0C20.1445 0.00334669 15.284 1.48202 11.1514 4.24887C7.01873 7.01572 3.79982 10.9464 1.902 15.5434C0.00418883 20.1404 -0.487218 25.197 0.489979 30.0734C1.46717 34.9498 3.86904 39.4267 7.3916 42.9375C10.9142 46.4482 15.3991 48.8351 20.2787 49.796C25.1583 50.7568 30.2133 50.2485 34.8039 48.3353C39.3945 46.4221 43.3144 43.19 46.0674 39.0481C48.8204 34.9063 50.2828 30.0408 50.2694 25.0675C50.2252 18.4183 47.5584 12.0553 42.8487 7.36136C38.1391 2.66746 31.7671 0.0220169 25.1179 0ZM25.1179 45.3401C21.1249 45.3401 17.2217 44.1561 13.9017 41.9378C10.5817 39.7194 7.99408 36.5664 6.46605 32.8774C4.93803 29.1884 4.53823 25.1292 5.31721 21.213C6.09619 17.2968 8.01897 13.6995 10.8424 10.8761C13.6658 8.05269 17.2631 6.12992 21.1793 5.35094C25.0955 4.57196 29.1547 4.97176 32.8437 6.49978C36.5327 8.02781 39.6857 10.6154 41.904 13.9354C44.1224 17.2554 45.3064 21.1587 45.3064 25.1516C45.2886 30.4943 43.1538 35.612 39.3696 39.3836C35.5854 43.1551 30.4606 45.2729 25.1179 45.2728V45.3401Z" fill="#E4E4E4"/>
<path d="M25.1178 7.55273C21.654 7.55273 18.2679 8.57988 15.3878 10.5043C12.5077 12.4287 10.263 15.164 8.9374 18.3642C7.61184 21.5643 7.26501 25.0857 7.94077 28.483C8.61654 31.8803 10.2845 35.001 12.7339 37.4503C15.1832 39.8996 18.3038 41.5676 21.7011 42.2434C25.0984 42.9191 28.6198 42.5723 31.82 41.2467C35.0202 39.9212 37.7554 37.6764 39.6798 34.7963C41.6043 31.9162 42.6314 28.5302 42.6314 25.0663C42.627 20.4228 40.7803 15.9707 37.4969 12.6873C34.2134 9.40379 29.7614 7.55719 25.1178 7.55273ZM20.8782 21.7688C21.233 22.3897 21.7508 22.9016 22.3755 23.2493C23.1586 23.625 24.0139 23.826 24.8823 23.8382C25.387 23.8382 25.8581 23.8382 26.3628 24.0064C27.5077 24.1423 28.6009 24.5611 29.5437 25.2248C30.4864 25.8886 31.2492 26.7765 31.7632 27.8086C32.1398 28.6849 32.285 29.6434 32.1848 30.5919C32.0847 31.5405 31.7425 32.4475 31.1912 33.2259C30.1101 34.7153 28.516 35.752 26.7161 36.1364H26.4469V37.5832C26.4681 37.7715 26.4492 37.962 26.3917 38.1425C26.3341 38.323 26.2391 38.4892 26.1128 38.6305C25.9866 38.7717 25.832 38.8847 25.659 38.962C25.4861 39.0394 25.2988 39.0794 25.1094 39.0794C24.92 39.0794 24.7327 39.0394 24.5598 38.962C24.3869 38.8847 24.2323 38.7717 24.106 38.6305C23.9798 38.4892 23.8847 38.323 23.8272 38.1425C23.7696 37.962 23.7508 37.7715 23.7719 37.5832V36.17H23.5027C21.9683 35.9528 20.5599 35.2008 19.5257 34.0465C18.4915 32.8923 17.8981 31.4101 17.8499 29.8611C17.8587 29.51 18.0044 29.1763 18.2559 28.9311C18.5073 28.6859 18.8446 28.5487 19.1959 28.5488C19.3719 28.5495 19.5461 28.5856 19.708 28.6549C19.8698 28.7243 20.0161 28.8255 20.138 28.9526C20.2588 29.0801 20.3525 29.2309 20.4132 29.3958C20.4739 29.5606 20.5005 29.7361 20.4913 29.9116C20.4913 32.3678 23.1831 33.6128 25.0505 33.6801H25.2188C25.9513 33.6703 26.6715 33.4905 27.3226 33.1547C27.9736 32.8189 28.5378 32.3365 28.9705 31.7454C29.2702 31.3387 29.4575 30.8602 29.5136 30.3582C29.5697 29.8561 29.4927 29.3481 29.2901 28.8853C28.919 28.2828 28.4156 27.7728 27.818 27.3939C27.2205 27.0149 26.5444 26.777 25.8413 26.6982C25.4207 26.6982 25.0169 26.5973 24.4953 26.5636C23.2599 26.5181 22.0513 26.19 20.9624 25.6047C19.8836 24.9887 19.0025 24.0784 18.422 22.9802C17.9864 22.0599 17.7933 21.0436 17.861 20.0278C17.9287 19.0119 18.255 18.0302 18.8089 17.1759C19.344 16.3838 20.0318 15.7065 20.8321 15.1836C21.6323 14.6607 22.5288 14.3028 23.4691 14.1308H23.7383V12.583C23.7383 12.2306 23.8783 11.8925 24.1276 11.6432C24.3768 11.394 24.7149 11.254 25.0674 11.254C25.2433 11.2517 25.4179 11.2845 25.5811 11.3503C25.7443 11.4161 25.8929 11.5136 26.0181 11.6372C26.1433 11.7609 26.2427 11.9082 26.3105 12.0705C26.3783 12.2329 26.4133 12.4071 26.4133 12.583V14.2654H26.6824C28.0525 14.5222 29.3169 15.1757 30.3188 16.1447C31.3208 17.1137 32.0161 18.3557 32.3184 19.7163C32.373 20.0678 32.2897 20.4268 32.0859 20.7183C31.8822 21.0099 31.5737 21.2114 31.2249 21.281H30.9893C30.6736 21.2847 30.3671 21.1745 30.1261 20.9706C29.885 20.7666 29.7256 20.4826 29.6771 20.1706C29.4375 19.1759 28.868 18.2918 28.0614 17.6624C27.2547 17.033 26.2587 16.6955 25.2356 16.7049H25.0337C24.267 16.6849 23.5073 16.8559 22.823 17.2024C22.1388 17.549 21.5514 18.0602 21.1138 18.6901C20.8316 19.1472 20.663 19.6652 20.622 20.2009C20.581 20.7365 20.6689 21.2741 20.8782 21.7688Z" fill="#E4E4E4"/>
</svg>
