<svg width="64" height="64" viewBox="0 0 64 64" fill="none" xmlns="http://www.w3.org/2000/svg">
<path fill-rule="evenodd" clip-rule="evenodd" d="M15 46C15 45.47 14.789 44.961 14.414 44.586C14.039 44.211 13.53 44 13 44C11.778 44 10.222 44 9 44C8.47 44 7.961 44.211 7.586 44.586C7.211 44.961 7 45.47 7 46C7 47.986 7 51.014 7 53C7 53.53 7.211 54.039 7.586 54.414C7.961 54.789 8.47 55 9 55C10.222 55 11.778 55 13 55C13.53 55 14.039 54.789 14.414 54.414C14.789 54.039 15 53.53 15 53C15 51.014 15 47.986 15 46Z" fill="#E4E4E4"/>
<path fill-rule="evenodd" clip-rule="evenodd" d="M29 42C29 41.47 28.789 40.961 28.414 40.586C28.039 40.211 27.53 40 27 40C25.778 40 24.222 40 23 40C22.47 40 21.961 40.211 21.586 40.586C21.211 40.961 21 41.47 21 42C21 44.871 21 50.129 21 53C21 53.53 21.211 54.039 21.586 54.414C21.961 54.789 22.47 55 23 55C24.222 55 25.778 55 27 55C27.53 55 28.039 54.789 28.414 54.414C28.789 54.039 29 53.53 29 53C29 50.129 29 44.871 29 42Z" fill="#E4E4E4"/>
<path fill-rule="evenodd" clip-rule="evenodd" d="M43 38C43 36.895 42.105 36 41 36C39.778 36 38.222 36 37 36C35.895 36 35 36.895 35 38C35 41.65 35 49.35 35 53C35 54.105 35.895 55 37 55C38.222 55 39.778 55 41 55C42.105 55 43 54.105 43 53C43 49.35 43 41.65 43 38Z" fill="#E4E4E4"/>
<path fill-rule="evenodd" clip-rule="evenodd" d="M57 32C57 31.47 56.789 30.961 56.414 30.586C56.039 30.211 55.53 30 55 30C53.778 30 52.222 30 51 30C50.47 30 49.961 30.211 49.586 30.586C49.211 30.961 49 31.47 49 32C49 36.683 49 48.317 49 53C49 53.53 49.211 54.039 49.586 54.414C49.961 54.789 50.47 55 51 55C52.222 55 53.778 55 55 55C55.53 55 56.039 54.789 56.414 54.414C56.789 54.039 57 53.53 57 53C57 48.317 57 36.683 57 32Z" fill="#E4E4E4"/>
<path fill-rule="evenodd" clip-rule="evenodd" d="M43.964 13.7928C43.964 13.7928 42.863 12.6908 41.586 11.4138C40.993 10.8208 40.833 9.91982 41.185 9.15882C41.538 8.39782 42.329 7.93781 43.165 8.00681C46.176 8.25581 49.714 8.54882 51.764 8.71782C52.747 8.79882 53.524 9.58481 53.594 10.5698C53.739 12.6028 53.987 16.0938 54.198 19.0608C54.257 19.8938 53.793 20.6758 53.033 21.0218C52.274 21.3688 51.379 21.2068 50.789 20.6168C49.421 19.2488 48.207 18.0358 48.207 18.0358L39.121 27.1208C38.559 27.6838 37.796 27.9998 37 27.9998H22C22 27.9998 15.495 32.8788 12.4 35.1998C11.516 35.8628 10.263 35.6838 9.59996 34.7998C9.21396 34.2848 8.78596 33.7148 8.39996 33.1998C7.73696 32.3158 7.91596 31.0628 8.79996 30.3998C12.067 27.9498 19.2 22.5998 19.2 22.5998C19.719 22.2108 20.351 21.9998 21 21.9998H35.757L43.964 13.7928Z" fill="#E4E4E4"/>
</svg>
