<svg width="57" height="57" viewBox="0 0 57 57" fill="none" xmlns="http://www.w3.org/2000/svg">
<path fill-rule="evenodd" clip-rule="evenodd" d="M28.5 9.5C18.0066 9.5 9.5 18.0066 9.5 28.5C9.5 38.9934 18.0066 47.5 28.5 47.5C38.9934 47.5 47.5 38.9934 47.5 28.5C47.5 18.0066 38.9934 9.5 28.5 9.5ZM4.75 28.5C4.75 15.3832 15.3832 4.75 28.5 4.75C41.6168 4.75 52.25 15.3832 52.25 28.5C52.25 41.6168 41.6168 52.25 28.5 52.25C15.3832 52.25 4.75 41.6168 4.75 28.5Z" fill="#E4E4E4"/>
<path fill-rule="evenodd" clip-rule="evenodd" d="M23.9528 14.3502C22.3975 17.8495 21.375 22.8502 21.375 28.5C21.375 34.1498 22.3975 39.1505 23.9528 42.6498C24.7317 44.4025 25.5978 45.6738 26.4395 46.4748C27.2689 47.2642 27.9611 47.5 28.5 47.5C29.0389 47.5 29.7311 47.2642 30.5605 46.4748C31.4022 45.6738 32.2683 44.4025 33.0472 42.6498C34.6025 39.1505 35.625 34.1498 35.625 28.5C35.625 22.8502 34.6025 17.8495 33.0472 14.3502C32.2683 12.5975 31.4022 11.3262 30.5605 10.5252C29.7311 9.73584 29.0389 9.5 28.5 9.5C27.9611 9.5 27.2689 9.73584 26.4395 10.5252C25.5978 11.3262 24.7317 12.5975 23.9528 14.3502ZM23.1649 7.08431C24.6086 5.7104 26.4155 4.75 28.5 4.75C30.5845 4.75 32.3914 5.7104 33.8351 7.08431C35.2666 8.44658 36.4476 10.3056 37.3878 12.421C39.2709 16.6579 40.375 22.3447 40.375 28.5C40.375 34.6553 39.2709 40.3421 37.3878 44.579C36.4476 46.6944 35.2666 48.5534 33.8351 49.9157C32.3914 51.2896 30.5845 52.25 28.5 52.25C26.4155 52.25 24.6086 51.2896 23.1649 49.9157C21.7334 48.5534 20.5524 46.6944 19.6122 44.579C17.7291 40.3421 16.625 34.6553 16.625 28.5C16.625 22.3447 17.7291 16.6579 19.6122 12.421C20.5524 10.3056 21.7334 8.44658 23.1649 7.08431Z" fill="#E4E4E4"/>
<path fill-rule="evenodd" clip-rule="evenodd" d="M28.876 38C21.0679 38 14.4765 39.8364 10.8453 42.3323L8.15472 38.4177C12.8545 35.1875 20.5093 33.25 28.876 33.25C36.7754 33.25 44.0096 34.9755 48.7373 37.8609L46.2627 41.9154C42.509 39.6245 36.216 38 28.876 38Z" fill="#E4E4E4"/>
<path fill-rule="evenodd" clip-rule="evenodd" d="M28.6522 23.7497C20.3743 23.7497 12.7976 21.8105 8.1441 18.5747L10.8559 14.6748C14.4372 17.1651 20.942 18.9997 28.6522 18.9997C36.168 18.9997 42.5517 17.2556 46.1901 14.8499L48.8099 18.8122C44.1388 21.9006 36.737 23.7497 28.6522 23.7497Z" fill="#E4E4E4"/>
</svg>
