<svg width="74" height="50" viewBox="0 0 74 50" fill="none" xmlns="http://www.w3.org/2000/svg">
<g clip-path="url(#clip0_305_794)">
<path d="M58.3671 15.1988C58.2555 14.9203 58.0629 14.6817 57.8141 14.5139C57.5654 14.3462 57.272 14.2569 56.9719 14.2578C56.7945 14.2577 56.6185 14.2888 56.4519 14.3495L51.0054 16.3245C50.8166 16.3866 50.6421 16.4856 50.492 16.6158C50.3418 16.746 50.2191 16.9048 50.1309 17.0829C50.0449 17.2578 49.9963 17.4487 49.9881 17.6434C49.98 17.8382 50.0124 18.0325 50.0834 18.214L50.156 18.4014L50.0549 18.4476C49.2673 18.879 48.4082 19.1644 47.519 19.2901C46.0107 19.1905 44.5198 18.9095 43.0787 18.453C41.4908 17.9483 39.8438 17.6532 38.1795 17.5751C37.4672 17.5697 36.7576 17.6624 36.0707 17.8508C35.0223 18.1574 34.0204 18.6053 33.0929 19.1822C31.3208 18.4591 28.9866 18.5711 27.0815 18.6696C26.2829 18.7354 25.4807 18.745 24.6808 18.6981C24.211 18.6132 23.7598 18.4468 23.3473 18.2065C23.4157 18.0288 23.4474 17.839 23.4404 17.6487C23.4334 17.4584 23.3879 17.2714 23.3066 17.0992C23.2244 16.9243 23.1084 16.7673 22.9653 16.6374C22.8222 16.5075 22.6549 16.4071 22.4728 16.3422L16.9734 14.3495C16.6066 14.2144 16.2017 14.2275 15.8444 14.3857C15.487 14.544 15.2053 14.8351 15.0588 15.1975L9.60147 29.2359C9.532 29.4144 9.49966 29.6051 9.50643 29.7964C9.51321 29.9877 9.55894 30.1757 9.64085 30.3487C9.72292 30.5243 9.83898 30.6818 9.98232 30.8122C10.1257 30.9426 10.2934 31.0433 10.4759 31.1085L15.9754 33.1005C16.2769 33.2095 16.6051 33.2204 16.9132 33.1318C17.2213 33.0431 17.4936 32.8594 17.6911 32.6069C18.6579 33.1935 20.2181 34.1685 21.1537 34.7591C20.9151 35.1288 20.7777 35.5545 20.7551 35.9939C20.7324 36.4332 20.8254 36.8709 21.0247 37.2631C21.2848 37.7646 21.6846 38.18 22.1759 38.4591C22.6671 38.7382 23.2287 38.8689 23.7927 38.8355C23.8219 39.2118 23.9346 39.5769 24.1227 39.9042C24.4074 40.3931 24.8276 40.789 25.3326 41.0442C25.8376 41.2994 26.4056 41.4029 26.9681 41.3422C27.0118 41.6956 27.1288 42.036 27.3117 42.3416C27.5992 42.8132 28.0144 43.1938 28.5091 43.4393C29.0039 43.6849 29.5581 43.7855 30.1075 43.7293C30.1522 44.0922 30.2753 44.4411 30.4681 44.7518C30.7319 45.1695 31.0961 45.5145 31.5276 45.7551C31.9591 45.9958 32.444 46.1245 32.9381 46.1294C33.3505 46.1286 33.7572 46.0331 34.1269 45.8501C34.4965 45.6672 34.8192 45.4018 35.0699 45.0743L35.3687 44.7002L37.2018 45.9311C37.8274 46.3771 38.577 46.6159 39.3452 46.6141C39.8596 46.6129 40.3686 46.51 40.843 46.3113C41.286 46.1345 41.6895 45.8714 42.03 45.5374C42.3706 45.2033 42.6414 44.805 42.8268 44.3655C43.7522 44.5107 44.6986 44.307 45.4822 43.7938C46.2365 43.3204 46.7787 42.5739 46.9955 41.7101C47.7715 41.6664 48.5154 41.3856 49.1267 40.9056C49.7031 40.4597 50.1274 39.8464 50.3414 39.1499C51.0408 39.1726 51.7311 38.9857 52.3235 38.6133C52.916 38.2408 53.3836 37.6998 53.6663 37.0596C53.9491 36.4195 54.034 35.7094 53.9102 35.0206C53.7864 34.3319 53.4595 33.6958 52.9716 33.1942L55.4022 31.8852L55.5441 32.2504C55.6914 32.6121 55.9733 32.9026 56.3303 33.0607C56.6874 33.2189 57.0919 33.2324 57.4587 33.0984L62.9582 31.1058C63.1397 31.0405 63.3066 30.9401 63.4492 30.8102C63.5918 30.6802 63.7073 30.5234 63.7892 30.3487C63.8708 30.1755 63.9161 29.9875 63.9226 29.7962C63.929 29.6049 63.8963 29.4142 63.8265 29.2359L58.3671 15.1988ZM36.4855 19.2664C37.0386 19.1157 37.6097 19.0419 38.1829 19.0471C39.7106 19.1266 41.2216 19.4036 42.6782 19.8713C44.2394 20.3619 45.8544 20.661 47.4878 20.7621H47.5448C48.6487 20.6475 49.7187 20.3142 50.6924 19.7817L54.8584 30.4947L51.7352 32.1764L51.6918 32.1425C50.228 30.9851 48.7637 29.8282 47.299 28.6717L47.1632 28.5672C47.3076 28.4668 47.4104 28.3173 47.4524 28.1465C47.4944 27.9758 47.4727 27.7956 47.3914 27.6398C47.2967 27.4643 47.1373 27.3327 46.9471 27.2729C46.7569 27.2132 46.5509 27.2301 46.373 27.32C46.0878 27.4635 45.7929 27.5867 45.4903 27.6886C44.8619 27.8944 44.2044 27.9973 43.5431 27.9935C41.2164 27.9935 38.3981 26.7782 36.0069 24.7434C35.8636 24.6225 35.6811 24.558 35.4937 24.5619C35.3063 24.5657 35.1267 24.6378 34.9885 24.7644C33.7776 25.8733 32.2761 26.6146 30.6595 26.9017C30.4113 26.9452 30.1599 26.9679 29.9079 26.9696C29.4932 26.9738 29.083 26.8836 28.7082 26.7058C28.3335 26.5281 28.0041 26.2675 27.7448 25.9438C27.8034 25.8837 27.8675 25.8294 27.9363 25.7815C28.9146 24.998 30.1089 23.854 31.2679 22.748C32.067 21.9835 32.8226 21.2618 33.431 20.7308C34.3647 20.0831 35.3958 19.5887 36.4855 19.2664ZM22.3758 17.7136L15.9754 15.1988L14.9366 19.5855L16.4513 15.7298L21.9256 17.7136L21.6893 18.2887C21.6893 18.2934 21.6894 18.2975 21.6853 18.3016L20 22L22.3758 17.7136ZM23.5659 37.3731C23.3179 37.3641 23.0768 37.289 22.8675 37.1555C22.6583 37.0221 22.4885 36.8351 22.3758 36.614C22.2724 36.416 22.2325 36.1909 22.2617 35.9694C22.2908 35.7479 22.3876 35.5408 22.5387 35.3763L24.4818 32.9403C24.5887 32.7912 24.7292 32.6694 24.8918 32.5846C25.0544 32.4998 25.2347 32.4544 25.4181 32.4521C25.6621 32.4592 25.9004 32.5281 26.1105 32.6523C26.3207 32.7765 26.4959 32.9519 26.6198 33.1623C26.7224 33.3438 26.7705 33.551 26.7584 33.7592C26.7464 33.9673 26.6747 34.1676 26.5519 34.3362L24.3338 37.0784C24.12 37.2634 23.8487 37.3677 23.5659 37.3731ZM26.6144 39.8933C26.3759 39.8869 26.143 39.8194 25.9381 39.697C25.7332 39.5747 25.5633 39.4017 25.4446 39.1947C25.3396 39.0132 25.289 38.8054 25.299 38.596C25.309 38.3866 25.3791 38.1846 25.5009 38.014L27.719 35.2717C27.9341 35.0862 28.2076 34.9823 28.4917 34.9784C28.723 34.9848 28.949 35.0493 29.149 35.166C29.3489 35.2826 29.5162 35.4476 29.6357 35.6458C29.7418 35.821 29.7971 36.0222 29.7955 36.227C29.7938 36.4318 29.7352 36.6321 29.6262 36.8055L27.4393 39.5464C27.2194 39.7641 26.9238 39.8884 26.6144 39.8933ZM29.7688 42.2777C29.5362 42.2714 29.3089 42.2067 29.1079 42.0894C28.9069 41.9722 28.7386 41.8063 28.6186 41.6069C28.5136 41.4323 28.4591 41.2318 28.4614 41.028C28.4637 40.8242 28.5226 40.625 28.6315 40.4527L30.817 37.7125C31.0375 37.4946 31.334 37.3707 31.644 37.3669C31.8731 37.3731 32.0971 37.4357 32.2962 37.5491C32.4953 37.6626 32.6633 37.8234 32.7853 38.0174C32.8911 38.1856 32.9493 38.3793 32.9539 38.578C32.9584 38.7767 32.9091 38.9729 32.8111 39.1458L30.555 41.9736C30.3387 42.1661 30.0603 42.2741 29.7708 42.2777H29.7688ZM32.936 44.654C32.7011 44.649 32.4711 44.586 32.2664 44.4706C32.0617 44.3553 31.8887 44.1911 31.7628 43.9927C31.6594 43.8251 31.6033 43.6325 31.6005 43.4355C31.5978 43.2384 31.6485 43.0444 31.7472 42.8738L34.004 40.0447C34.2196 39.8499 34.4983 39.7395 34.7889 39.7337C35.0382 39.7428 35.2805 39.8185 35.4906 39.953C35.7008 40.0874 35.871 40.2757 35.9838 40.4982C36.087 40.6962 36.1268 40.9211 36.0976 41.1425C36.0685 41.3638 35.9718 41.5708 35.8208 41.7353L33.8791 44.1713C33.7715 44.3206 33.6302 44.4424 33.4667 44.5267C33.3032 44.6111 33.1221 44.6556 32.9381 44.6567L32.936 44.654ZM40.2455 44.9548C39.8944 45.1068 39.51 45.1658 39.1295 45.1261C38.7489 45.0864 38.385 44.9493 38.0729 44.728L36.2941 43.5324L37.0131 42.6376C37.2353 42.3683 37.401 42.0569 37.5 41.7221C37.599 41.3873 37.6295 41.0359 37.5895 40.689L39.039 41.8317C39.8633 42.4801 40.6807 43.1217 41.4479 43.7327C41.345 44.0097 41.1849 44.2619 40.9781 44.4729C40.7713 44.6839 40.5224 44.8491 40.2475 44.9575L40.2455 44.9548ZM52.2125 36.6038C52.0066 36.9867 51.6839 37.2939 51.2913 37.4806C50.8987 37.6673 50.4567 37.7238 50.0297 37.6419L44.3809 33.2003C44.2241 33.0774 44.0255 33.0202 43.8273 33.0408C43.6291 33.0615 43.4466 33.1583 43.3184 33.311C43.2562 33.3856 43.2098 33.472 43.1817 33.5651C43.1537 33.6581 43.1447 33.7558 43.1553 33.8524C43.1659 33.949 43.1958 34.0424 43.2433 34.1272C43.2908 34.2119 43.3549 34.2862 43.4318 34.3457L48.9068 38.6488C48.7943 39.0899 48.5376 39.4809 48.1776 39.7595C47.7322 40.1074 47.1715 40.2735 46.6085 40.2246C46.3797 40.0461 46.0152 39.7534 45.7741 39.5599L40.864 35.6757C40.7072 35.5529 40.5089 35.4956 40.3107 35.5157C40.1125 35.5358 39.9298 35.6318 39.8008 35.7837C39.7384 35.8582 39.6916 35.9445 39.6633 36.0375C39.635 36.1305 39.6257 36.2282 39.6361 36.3249C39.6464 36.4215 39.6761 36.5151 39.7234 36.6C39.7708 36.6849 39.8347 36.7594 39.9115 36.819L44.81 40.6951C45.0898 40.9199 45.3382 41.1195 45.5372 41.2763C45.4865 41.5419 45.3808 41.7938 45.2268 42.016C45.0728 42.2382 44.8739 42.4257 44.643 42.5663C44.3564 42.7574 44.0287 42.8783 43.6866 42.9191C43.3445 42.9599 42.9976 42.9195 42.6741 42.8012C41.8315 42.1352 40.9129 41.4155 39.9895 40.6863C38.9474 39.8668 37.9011 39.0433 36.9526 38.2937C36.7958 38.1707 36.5975 38.1133 36.3993 38.1334C36.201 38.1536 36.0183 38.2497 35.8894 38.4017C35.8679 38.429 35.8484 38.4578 35.831 38.4879C35.3953 38.3019 34.9189 38.2317 34.448 38.2842C34.4017 37.9193 34.2771 37.5686 34.0828 37.2563C33.7881 36.7955 33.3708 36.426 32.8778 36.1893C32.3847 35.9525 31.8355 35.8579 31.2916 35.9161C31.2476 35.5606 31.1297 35.2183 30.9454 34.9112C30.6685 34.4569 30.2729 34.0869 29.801 33.8411C29.3292 33.5953 28.7992 33.4831 28.2683 33.5167C28.2414 33.1427 28.1307 32.7796 27.9444 32.4541C27.6883 32.0097 27.3204 31.6399 26.8772 31.3815C26.4341 31.1231 25.9311 30.9849 25.4181 30.9808C25.0059 30.9821 24.5994 31.0779 24.2301 31.2609C23.8607 31.444 23.5383 31.7093 23.2876 32.0366L22.0573 33.5785C21.081 32.9606 19.2818 31.8349 18.2811 31.2314L22.7981 19.5855C23.3303 19.8787 23.911 20.0738 24.5124 20.1612C25.3943 20.2199 26.2794 20.2126 27.1603 20.1395C28.6742 19.9959 30.2003 20.0454 31.7017 20.2868C31.2373 20.7166 30.7349 21.1952 30.208 21.6983C29.0742 22.7846 27.8996 23.9029 27.0068 24.6219C26.7822 24.7568 26.5916 24.9416 26.4497 25.1618C26.3077 25.382 26.2182 25.6319 26.188 25.8922C26.1762 26.0731 26.2039 26.2544 26.2694 26.4235C26.3348 26.5926 26.4363 26.7454 26.5669 26.8712C26.9702 27.3668 27.4797 27.7654 28.0577 28.0376C28.6358 28.3097 29.2677 28.4485 29.9066 28.4436C30.2441 28.442 30.5809 28.4122 30.9135 28.3547C32.6016 28.0638 34.1875 27.3466 35.5208 26.271C37.0599 27.4768 40.1145 29.4661 43.5438 29.4661C44.2293 29.4686 44.912 29.3807 45.5745 29.2047L47.4077 30.6543C48.5768 31.5783 49.8104 32.5553 50.8261 33.3544L51.7278 34.0666C52.0872 34.37 52.3316 34.7875 52.4203 35.2493C52.509 35.7112 52.4367 36.1896 52.2153 36.6045L52.2125 36.6038ZM56.9529 31.7297L56.5021 30.5694L51.8174 18.5236L51.5098 17.7089L56.9509 15.7162L54 16.5L51.0054 17.6434L56.5021 31.8852L56.9529 31.7297Z" fill="#E4E4E4"/>
</g>
<g clip-path="url(#clip1_305_794)">
<path d="M1.63904 0.0786324L13.1885 0.635704C13.4002 0.645912 13.6018 0.731205 13.7851 0.876507C13.9682 1.02166 14.133 1.22675 14.2714 1.4768C14.4096 1.72667 14.5215 2.0215 14.5988 2.34643C14.6761 2.67123 14.7188 3.02622 14.7188 3.39664L14.7188 46.1393C14.7188 46.5097 14.6761 46.866 14.5988 47.1933C14.5215 47.5206 14.4096 47.819 14.2714 48.0732C14.133 48.3276 13.9682 48.5379 13.7851 48.6888C13.6018 48.8399 13.4002 48.9315 13.1885 48.9484L1.63904 49.869C1.41394 49.8869 1.1991 49.826 1.00338 49.7004C0.807468 49.5747 0.630762 49.3843 0.482184 49.1434C0.333496 48.9024 0.213023 48.6109 0.129704 48.2834C0.0463514 47.9558 0.000213623 47.5922 0.000213623 47.2073L0.000213623 2.79188C0.000213623 2.40696 0.0463514 2.04197 0.129704 1.71171C0.213023 1.3816 0.333496 1.08632 0.482184 0.840588C0.630762 0.595051 0.807468 0.399044 1.00338 0.267181C1.1991 0.135464 1.41394 0.0677719 1.63904 0.0786324ZM13.1885 48.2739C13.3473 48.2615 13.4986 48.193 13.6361 48.0799C13.7736 47.9669 13.8973 47.8093 14.0012 47.6185C14.1051 47.4278 14.1892 47.2039 14.2472 46.9582C14.3053 46.7126 14.3374 46.4451 14.3374 46.167L14.3374 3.38097C14.3374 3.10287 14.3053 2.83637 14.2472 2.59257C14.1892 2.3487 14.1051 2.12746 14.0012 1.94004C13.8973 1.75252 13.7736 1.5988 13.6361 1.49009C13.4986 1.38131 13.3473 1.31759 13.1885 1.31022L1.63904 0.773777C1.47024 0.765938 1.30917 0.816978 1.16249 0.915989C1.01569 1.01508 0.88332 1.16219 0.772043 1.34637C0.660705 1.53066 0.570507 1.75202 0.508137 1.99942C0.445743 2.2469 0.411213 2.52038 0.411213 2.80877L0.411213 47.1775C0.411213 47.4659 0.445743 47.7383 0.508137 47.9838C0.570507 48.2292 0.660705 48.4478 0.772043 48.6285C0.88332 48.8092 1.01569 48.9522 1.16249 49.0466C1.30917 49.141 1.47024 49.187 1.63904 49.1738L13.1885 48.2739Z" fill="#E4E4E4"/>
<path d="M3.88475 0.812519L13.5 1.00002C13.6585 1.00669 14.2461 2.2574 14.3833 2.36547C14.5205 2.47347 14.3963 3.31313 14.5 3.50002C14.6036 3.68679 14.5709 3.99863 14.6288 4.242C14.6868 4.48529 14.7188 4.75139 14.7188 5.02921L14.7188 44.4866C14.7188 44.7644 14.6868 45.0315 14.6288 45.2767C14.5709 45.5219 14.6036 45.81 14.5 46C14.3963 46.1901 14.4746 47.1101 14.3374 47.2224C14.2001 47.3347 13.6585 48.4883 13.5 48.5L4 49.5C3.83184 49.5124 2.64614 49.5948 2.5 49.5C2.35375 49.405 1.11086 49.1804 1 48.9996C0.5 48.4996 0.56214 48.2449 0.5 47.9996C0.5 47.9996 0.264121 46.7163 0.264121 46.3501L0.189479 25.8047L0.189479 5.38089C0.189479 5.09305 0.127324 4.7927 0.189479 4.5454C0.251618 4.29819 0.389077 1.68444 0.5 1.50002C0.610861 1.31569 0.997829 0.912079 1.14408 0.812519C1.29021 0.713051 3.71659 0.805439 3.88475 0.812519ZM13.5723 45.9124C13.6779 45.9049 13.7786 45.8599 13.8702 45.7851C13.9617 45.7103 14.0441 45.6058 14.1134 45.479C14.1826 45.3523 14.2386 45.2034 14.2773 45.0398C14.316 44.8763 14.3374 44.698 14.3374 44.5126L14.3374 5.01519C14.3374 4.82979 14.316 4.65223 14.2773 4.48989C14.2386 4.32753 14.1826 4.18036 14.1134 4.05583C14.0441 3.93125 13.9617 3.82929 13.8702 3.75742C13.7786 3.68549 13.6779 3.64368 13.5723 3.63941L2.3673 3.18764C2.25521 3.18312 2.14828 3.21774 2.05092 3.2842C1.95352 3.35069 1.8657 3.44905 1.7919 3.57196C1.71807 3.69491 1.65827 3.8424 1.61691 4.00709C1.57556 4.17181 1.55267 4.35371 1.55267 4.5454L1.55267 45.3842C1.55267 45.5759 1.57556 45.757 1.61691 45.9205C1.65827 46.0839 1.71807 46.2295 1.7919 46.3501C1.8657 46.4707 1.95352 46.5663 2.05092 46.6297C2.14828 46.6931 2.25521 46.7244 2.3673 46.7163L13.5723 45.9124Z" fill="#E4E4E4"/>
<path d="M1.63904 0.0786324L13.1885 0.635704C13.4002 0.645912 13.6018 0.731205 13.7851 0.876507C13.9682 1.02166 14.133 1.22675 14.2714 1.4768C14.4096 1.72667 14.5215 2.0215 14.5988 2.34643C14.6761 2.67123 14.7188 3.02622 14.7188 3.39664L14.7188 46.1393C14.7188 46.5097 14.6761 46.866 14.5988 47.1933C14.5215 47.5206 14.4096 47.819 14.2714 48.0732C14.133 48.3276 13.9682 48.5379 13.7851 48.6888C13.6018 48.8399 13.4002 48.9315 13.1885 48.9484L1.63904 49.869C1.41394 49.8869 1.1991 49.826 1.00338 49.7004C0.807468 49.5747 0.630762 49.3843 0.482184 49.1434C0.333496 48.9024 0.213023 48.6109 0.129704 48.2834C0.0463514 47.9558 0.000213623 47.5922 0.000213623 47.2073L0.000213623 2.79188C0.000213623 2.40696 0.0463514 2.04197 0.129704 1.71171C0.213023 1.3816 0.333496 1.08632 0.482184 0.840584C0.630762 0.595047 0.807468 0.399044 1.00338 0.267181C1.1991 0.135464 1.41394 0.0677681 1.63904 0.0786324ZM13.1885 48.2739C13.3473 48.2615 13.4986 48.193 13.6361 48.0799C13.7736 47.9669 13.8973 47.8093 14.0012 47.6185C14.1051 47.4278 14.1892 47.2039 14.2472 46.9582C14.3053 46.7126 14.3374 46.4451 14.3374 46.167L14.3374 3.38097C14.3374 3.10287 14.3053 2.83637 14.2472 2.59257C14.1892 2.3487 14.1051 2.12746 14.0012 1.94004C13.8973 1.75252 13.7736 1.5988 13.6361 1.49009C13.4986 1.38131 13.3473 1.31759 13.1885 1.31022L1.63904 0.773777C1.47024 0.765938 1.30917 0.816975 1.16249 0.915989C1.01569 1.01508 0.88332 1.16219 0.772043 1.34637C0.660705 1.53066 0.570507 1.75202 0.508137 1.99942C0.445743 2.2469 0.411213 2.52038 0.411213 2.80877L0.411213 47.1775C0.411213 47.4659 0.445743 47.7383 0.508137 47.9838C0.570507 48.2292 0.660705 48.4478 0.772043 48.6285C0.88332 48.8092 1.01569 48.9522 1.16249 49.0466C1.30917 49.141 1.47024 49.187 1.63904 49.1738L13.1885 48.2739Z" fill="#E4E4E4"/>
</g>
<g clip-path="url(#clip2_305_794)">
<path d="M72.1476 49.9214L60.5982 49.3643C60.3865 49.3541 60.1849 49.2688 60.0016 49.1235C59.8185 48.9783 59.6537 48.7732 59.5153 48.5232C59.377 48.2733 59.2652 47.9785 59.1879 47.6536C59.1106 47.3288 59.0679 46.9738 59.0679 46.6034V3.86072C59.0679 3.4903 59.1106 3.13396 59.1879 2.80673C59.2652 2.47936 59.377 2.18101 59.5153 1.92679C59.6537 1.67239 59.8185 1.46211 60.0016 1.31119C60.1849 1.16012 60.3865 1.06849 60.5982 1.05161L72.1476 0.131012C72.3727 0.11307 72.5876 0.173993 72.7833 0.299559C72.9792 0.425251 73.1559 0.615691 73.3045 0.856558C73.4532 1.09761 73.5737 1.38909 73.657 1.71659C73.7403 2.04422 73.7865 2.40776 73.7865 2.79268V47.2081C73.7865 47.593 73.7403 47.958 73.657 48.2883C73.5737 48.6184 73.4532 48.9137 73.3045 49.1594C73.1559 49.4049 72.9792 49.601 72.7833 49.7328C72.5876 49.8645 72.3727 49.9322 72.1476 49.9214ZM60.5982 1.72613C60.4394 1.7385 60.2881 1.80698 60.1506 1.92009C60.0131 2.03312 59.8894 2.19074 59.7854 2.38153C59.6816 2.57222 59.5975 2.7961 59.5395 3.0418C59.4814 3.28743 59.4493 3.55494 59.4493 3.83304V46.619C59.4493 46.8971 59.4814 47.1636 59.5395 47.4074C59.5975 47.6513 59.6816 47.8725 59.7854 48.06C59.8894 48.2475 60.0131 48.4012 60.1506 48.5099C60.2881 48.6187 60.4394 48.6824 60.5982 48.6898L72.1476 49.2262C72.3164 49.2341 72.4775 49.183 72.6242 49.084C72.771 48.9849 72.9034 48.8378 73.0146 48.6536C73.126 48.4693 73.2162 48.248 73.2785 48.0006C73.3409 47.7531 73.3755 47.4796 73.3755 47.1912V2.8225C73.3755 2.53411 73.3409 2.26172 73.2785 2.01621C73.2162 1.77076 73.126 1.55225 73.0146 1.37146C72.9034 1.19078 72.771 1.04783 72.6242 0.953368C72.4775 0.858974 72.3164 0.813005 72.1476 0.826158L60.5982 1.72613Z" fill="#E4E4E4"/>
<path d="M71.4194 47.5062L60.2144 47.0344C60.056 47.0278 59.905 46.9648 59.7677 46.8567C59.6306 46.7487 59.507 46.5957 59.4033 46.4088C59.2997 46.222 59.2158 46.0014 59.1579 45.758C59.0999 45.5147 59.0679 45.2486 59.0679 44.9708V5.5134C59.0679 5.23558 59.0999 4.96848 59.1579 4.72336C59.2158 4.47817 59.2997 4.2549 59.4033 4.06486C59.507 3.87472 59.6306 3.71782 59.7677 3.60551C59.905 3.49313 60.056 3.4254 60.2144 3.41375L71.4194 2.58985C71.5875 2.57748 71.748 2.62409 71.8941 2.71897C72.0404 2.81392 72.1723 2.9572 72.2831 3.13805C72.3941 3.319 72.4839 3.53751 72.5461 3.78277C72.6082 4.02812 72.6426 4.30015 72.6426 4.58799V45.4696C72.6426 45.7575 72.6082 46.0306 72.5461 46.2779C72.4839 46.5251 72.3941 46.7464 72.2831 46.9309C72.1723 47.1152 72.0404 47.2626 71.8941 47.3622C71.748 47.4616 71.5875 47.5133 71.4194 47.5062ZM60.2144 4.08758C60.1088 4.09516 60.0081 4.14015 59.9165 4.21494C59.825 4.2897 59.7425 4.39424 59.6733 4.521C59.6041 4.64771 59.5481 4.79663 59.5094 4.96021C59.4707 5.12376 59.4493 5.302 59.4493 5.4874V44.9848C59.4493 45.1702 59.4707 45.3478 59.5094 45.5101C59.5481 45.6725 59.6041 45.8196 59.6733 45.9442C59.7425 46.0688 59.825 46.1707 59.9165 46.2426C60.0081 46.3145 60.1088 46.3563 60.2144 46.3606L71.4194 46.8124C71.5315 46.8169 71.6384 46.7823 71.7358 46.7158C71.8332 46.6493 71.921 46.551 71.9948 46.4281C72.0686 46.3051 72.1284 46.1576 72.1698 45.9929C72.2111 45.8282 72.234 45.6463 72.234 45.4546V4.61585C72.234 4.42415 72.2111 4.24298 72.1698 4.07955C72.1284 3.91616 72.0686 3.77055 71.9948 3.64992C71.921 3.52934 71.8332 3.43374 71.7358 3.37031C71.6384 3.30691 71.5315 3.27565 71.4194 3.28369L60.2144 4.08758Z" fill="#E4E4E4"/>
<path d="M72.1476 49.9214L60.5982 49.3643C60.3865 49.3541 60.1849 49.2688 60.0016 49.1235C59.8185 48.9783 59.6537 48.7732 59.5153 48.5232C59.377 48.2733 59.2652 47.9785 59.1879 47.6536C59.1106 47.3288 59.0679 46.9738 59.0679 46.6034V3.86072C59.0679 3.4903 59.1106 3.13396 59.1879 2.80673C59.2652 2.47936 59.377 2.18101 59.5153 1.92679C59.6537 1.67239 59.8185 1.46211 60.0016 1.31119C60.1849 1.16012 60.3865 1.06848 60.5982 1.05161L72.1476 0.131012C72.3727 0.11307 72.5876 0.173993 72.7833 0.299559C72.9792 0.425251 73.1559 0.615691 73.3045 0.856558C73.4532 1.09761 73.5737 1.38909 73.657 1.71659C73.7403 2.04422 73.7865 2.40776 73.7865 2.79268V47.2081C73.7865 47.593 73.7403 47.958 73.657 48.2883C73.5737 48.6184 73.4532 48.9137 73.3045 49.1594C73.1559 49.405 72.9792 49.601 72.7833 49.7328C72.5876 49.8645 72.3727 49.9322 72.1476 49.9214ZM60.5982 1.72613C60.4394 1.7385 60.2881 1.80698 60.1506 1.92009C60.0131 2.03312 59.8894 2.19074 59.7854 2.38153C59.6816 2.57222 59.5975 2.7961 59.5395 3.0418C59.4814 3.28743 59.4493 3.55494 59.4493 3.83304V46.619C59.4493 46.8971 59.4814 47.1636 59.5395 47.4074C59.5975 47.6513 59.6816 47.8725 59.7854 48.06C59.8894 48.2475 60.0131 48.4012 60.1506 48.5099C60.2881 48.6187 60.4394 48.6824 60.5982 48.6898L72.1476 49.2262C72.3164 49.2341 72.4775 49.183 72.6242 49.084C72.771 48.9849 72.9034 48.8378 73.0146 48.6536C73.126 48.4693 73.2162 48.248 73.2785 48.0006C73.3409 47.7531 73.3755 47.4796 73.3755 47.1912V2.8225C73.3755 2.53411 73.3409 2.26172 73.2785 2.01621C73.2162 1.77076 73.126 1.55225 73.0146 1.37146C72.9034 1.19078 72.771 1.04783 72.6242 0.953368C72.4775 0.858974 72.3164 0.813005 72.1476 0.826158L60.5982 1.72613Z" fill="#E4E4E4"/>
<path d="M71 49.5002L60.5 49C60.3377 48.9932 59.5246 47.7891 59.5 47.5C59.3595 47.3894 59.3543 47.0671 59.2481 46.8757C59.1419 46.6845 59.0561 46.4585 58.9967 46.2093C58.9374 45.9601 58.9045 45.6876 58.9045 45.4031V4.99613C58.9045 4.71163 58.9374 4.4381 58.9967 4.18708C59.0561 3.93598 59.1419 3.70734 59.2481 3.51273C59.3543 3.31801 59.6331 2.115 59.7736 2C59.9142 1.88491 60.3377 1.51193 60.5 1.5L69 0.5C69.1722 0.487337 71.3503 0.403121 71.5 0.500285C71.6498 0.597521 72.8865 0.814786 73 0.999983C73.1136 1.18529 73.4364 1.88329 73.5 2.13445C73.5637 2.3857 73.5 3.7822 73.5 4.07698V45.5002C73.5 45.795 73.5637 46.247 73.5 46.5002C73.4364 46.7534 73.6136 47.8114 73.5 48.0002C73.3865 48.189 72.8569 49.0896 72.7071 49.1916C72.5574 49.2935 71.1722 49.5075 71 49.5002ZM60.0787 3.53599C59.9705 3.54376 59.8674 3.58983 59.7736 3.66642C59.6799 3.74298 59.5955 3.85004 59.5246 3.97985C59.4537 4.1096 59.3963 4.26211 59.3567 4.42963C59.3171 4.59712 59.2951 4.77964 59.2951 4.9695V45.4175C59.2951 45.6074 59.3171 45.7892 59.3567 45.9554C59.3963 46.1217 59.4537 46.2724 59.5246 46.3999C59.5955 46.5275 59.6799 46.6319 59.7736 46.7055C59.8674 46.7792 59.9705 46.822 60.0787 46.8264L71.5533 47.289C71.6681 47.2937 71.7776 47.2582 71.8773 47.1901C71.9771 47.122 72.067 47.0213 72.1426 46.8955C72.2182 46.7696 72.2794 46.6185 72.3218 46.4499C72.3641 46.2812 72.3875 46.0949 72.3875 45.8986V4.07698C72.3875 3.88067 72.3641 3.69513 72.3218 3.52777C72.2794 3.36045 72.2182 3.21133 72.1426 3.0878C72.067 2.96432 71.9771 2.86642 71.8773 2.80146C71.7776 2.73654 71.6681 2.70452 71.5533 2.71276L60.0787 3.53599Z" fill="#E4E4E4"/>
</g>
<defs>
<clipPath id="clip0_305_794">
<rect width="54.4185" height="32.357" fill="white" transform="translate(9.50513 14.2578)"/>
</clipPath>
<clipPath id="clip1_305_794">
<rect width="14.7188" height="50" fill="white"/>
</clipPath>
<clipPath id="clip2_305_794">
<rect width="14.7188" height="50" fill="white" transform="translate(59.0679)"/>
</clipPath>
</defs>
</svg>
