<svg width="62" height="62" viewBox="0 0 62 62" fill="none" xmlns="http://www.w3.org/2000/svg">
<path d="M7.26086 25.4447C6.16866 25.4377 5.31053 24.5687 5.31745 23.4765L5.35459 17.6091C5.39818 10.7257 11.0471 5.14785 17.9305 5.19143L23.7979 5.22858C24.8901 5.23549 25.7482 6.10456 25.7413 7.19675C25.7344 8.28895 24.8653 9.14708 23.7731 9.14017L17.9057 9.10302C13.1559 9.07295 9.2961 12.9095 9.26619 17.6338L9.22904 23.5012C9.22212 24.5934 8.32766 25.4514 7.26086 25.4447Z" fill="white"/>
<path d="M54.1493 25.7429C53.0825 25.7361 52.199 24.8669 52.2059 23.7747L52.2431 17.9073C52.2731 13.1575 48.4366 9.29768 43.7122 9.26777L37.8449 9.23062C36.7527 9.2237 35.8947 8.32924 35.9014 7.26244C35.9082 6.19564 36.7774 5.31211 37.8696 5.31902L43.737 5.35617C50.6204 5.39975 56.1982 11.0487 56.1547 17.9321L56.1175 23.7995C56.1106 24.8917 55.2415 25.7498 54.1493 25.7429Z" fill="white"/>
<path d="M43.4153 56.1546L39.8847 56.1323C38.8179 56.1255 37.9344 55.2563 37.9413 54.1641C37.948 53.0973 38.8173 52.2137 39.9095 52.2207L43.4401 52.243C48.1899 52.2731 52.0497 48.4366 52.0796 43.7122L52.1018 40.207C52.1085 39.1402 52.9778 38.2567 54.07 38.2636C55.1368 38.2703 56.0203 39.1396 56.0134 40.2318L55.9912 43.737C55.9476 50.6203 50.2987 56.1982 43.4153 56.1546Z" fill="white"/>
<path d="M23.4762 56.029L17.6088 55.9919C10.7255 55.9483 5.14761 50.2993 5.19119 43.416L5.22834 37.5486C5.23525 36.4564 6.10432 35.5982 7.19652 35.6052C8.28872 35.6121 9.14685 36.4811 9.13993 37.5733L9.10278 43.4407C9.07271 48.1905 12.9092 52.0503 17.6336 52.0803L23.501 52.1174C24.5678 52.1242 25.4513 52.9934 25.4444 54.0856C25.4375 55.1778 24.5684 56.0359 23.4762 56.029Z" fill="white"/>
<path d="M47.0937 28.8207L43.6393 28.7989L17.7314 28.6348L14.277 28.613C13.1848 28.6061 12.3155 29.4896 12.3088 30.5564C12.302 31.6232 13.16 32.5176 14.2522 32.5246L17.7066 32.5464L43.6145 32.7105L47.0689 32.7323C48.1611 32.7393 49.0304 31.8557 49.0371 30.7889C49.0439 29.7221 48.1859 28.8277 47.0937 28.8207Z" fill="white"/>
<path d="M17.6878 35.5197L17.6825 36.3579C17.6558 40.5743 21.0378 43.9995 25.2542 44.0262L35.9222 44.0937C40.1386 44.1204 43.5637 40.7384 43.5904 36.522L43.5957 35.6838C43.5977 35.379 43.3705 35.1489 43.0657 35.147L18.2246 34.9897C17.9198 34.9878 17.6897 35.2149 17.6878 35.5197Z" fill="white"/>
<path d="M17.7502 25.6633L17.7555 24.8251C17.7822 20.6087 21.2073 17.2266 25.4237 17.2533L36.0917 17.3209C40.3081 17.3476 43.6901 20.7727 43.6634 24.9891L43.6581 25.8273C43.6562 26.1321 43.4261 26.3592 43.1213 26.3573L18.2802 26.2C17.9754 26.1981 17.7482 25.9681 17.7502 25.6633Z" fill="white"/>
</svg>
