<svg width="178" height="48" viewBox="0 0 178 48" fill="none" xmlns="http://www.w3.org/2000/svg">
<path d="M10.1133 38.005C10.1133 29.424 14.6736 23.8922 23.8752 23.8924C34.7229 23.8926 37.6372 16.0277 37.6372 9.94141" stroke="white" stroke-width="2.48255" stroke-linecap="round"/>
<path d="M52.0625 16.3909V32H49.2349V16.3909H52.0625ZM67.5225 16.3909V32H65.0074L57.6525 21.3678H57.5229V32H54.6953V16.3909H57.2257L64.5729 27.0307H64.7101V16.3909H67.5225ZM70.1743 32V16.3909H80.1739V18.7612H73.0019V22.9988H79.488V25.3692H73.0019V32H70.1743ZM82.3208 32V16.3909H85.1484V29.6297H92.0231V32H82.3208ZM94.0481 32V16.3909H104.2V18.7612H96.8757V22.9988H103.674V25.3692H96.8757V29.6297H104.261V32H94.0481ZM120.016 21.6574H117.166C117.085 21.19 116.935 20.7758 116.716 20.4151C116.498 20.0492 116.226 19.7393 115.901 19.4852C115.576 19.2312 115.205 19.0406 114.788 18.9136C114.376 18.7815 113.932 18.7155 113.454 18.7155C112.606 18.7155 111.854 18.9289 111.198 19.3557C110.543 19.7774 110.03 20.3973 109.659 21.2154C109.288 22.0283 109.102 23.0217 109.102 24.1954C109.102 25.3895 109.288 26.3955 109.659 27.2136C110.035 28.0266 110.548 28.6414 111.198 29.058C111.854 29.4696 112.603 29.6754 113.447 29.6754C113.914 29.6754 114.351 29.6144 114.757 29.4925C115.169 29.3654 115.537 29.18 115.863 28.9361C116.193 28.6922 116.47 28.3924 116.693 28.0367C116.922 27.6811 117.08 27.2746 117.166 26.8173L120.016 26.8325C119.91 27.5744 119.679 28.2705 119.323 28.9209C118.972 29.5712 118.512 30.1454 117.943 30.6433C117.374 31.1362 116.709 31.5224 115.946 31.8018C115.184 32.0762 114.338 32.2134 113.408 32.2134C112.037 32.2134 110.812 31.8958 109.735 31.2607C108.658 30.6256 107.809 29.7084 107.189 28.5093C106.569 27.3101 106.259 25.8722 106.259 24.1954C106.259 22.5136 106.572 21.0756 107.197 19.8816C107.822 18.6824 108.673 17.7653 109.75 17.1302C110.827 16.495 112.047 16.1774 113.408 16.1774C114.277 16.1774 115.085 16.2994 115.832 16.5433C116.579 16.7872 117.245 17.1454 117.829 17.6179C118.413 18.0854 118.893 18.6596 119.269 19.3404C119.651 20.0162 119.9 20.7885 120.016 21.6574ZM121.491 18.7612V16.3909H133.944V18.7612H129.12V32H126.315V18.7612H121.491ZM138.744 16.3909V32H135.916V16.3909H138.744ZM155.324 24.1954C155.324 25.8773 155.009 27.3178 154.379 28.5169C153.754 29.711 152.9 30.6256 151.818 31.2607C150.741 31.8958 149.519 32.2134 148.152 32.2134C146.785 32.2134 145.561 31.8958 144.478 31.2607C143.401 30.6205 142.548 29.7033 141.918 28.5093C141.293 27.3101 140.98 25.8722 140.98 24.1954C140.98 22.5136 141.293 21.0756 141.918 19.8816C142.548 18.6824 143.401 17.7653 144.478 17.1302C145.561 16.495 146.785 16.1774 148.152 16.1774C149.519 16.1774 150.741 16.495 151.818 17.1302C152.9 17.7653 153.754 18.6824 154.379 19.8816C155.009 21.0756 155.324 22.5136 155.324 24.1954ZM152.481 24.1954C152.481 23.0115 152.296 22.0131 151.925 21.2001C151.559 20.3821 151.051 19.7647 150.4 19.3481C149.75 18.9263 149.001 18.7155 148.152 18.7155C147.304 18.7155 146.554 18.9263 145.904 19.3481C145.253 19.7647 144.743 20.3821 144.372 21.2001C144.006 22.0131 143.823 23.0115 143.823 24.1954C143.823 25.3793 144.006 26.3803 144.372 27.1984C144.743 28.0113 145.253 28.6287 145.904 29.0504C146.554 29.4671 147.304 29.6754 148.152 29.6754C149.001 29.6754 149.75 29.4671 150.4 29.0504C151.051 28.6287 151.559 28.0113 151.925 27.1984C152.296 26.3803 152.481 25.3793 152.481 24.1954ZM170.395 16.3909V32H167.88L160.525 21.3678H160.396V32H157.568V16.3909H160.098L167.446 27.0307H167.583V16.3909H170.395Z" fill="white"/>
</svg>
